<svg width="280" height="80" viewBox="0 0 280 80" fill="none" xmlns="http://www.w3.org/2000/svg">
<rect width="280" height="80" rx="40" fill="none"/>
<path d="M51.4604 38.26C51.4604 39.92 51.2504 41.43 50.8304 42.79C50.4104 44.13 49.7804 45.29 48.9404 46.27C48.1204 47.25 47.0904 48 45.8504 48.52C44.6304 49.04 43.2104 49.3 41.5904 49.3C39.9104 49.3 38.4504 49.04 37.2104 48.52C35.9704 47.98 34.9404 47.23 34.1204 46.27C33.3004 45.29 32.6904 44.12 32.2904 42.76C31.8904 41.4 31.6904 39.89 31.6904 38.23C31.6904 36.03 32.0504 34.11 32.7704 32.47C33.4904 30.83 34.5804 29.55 36.0404 28.63C37.5204 27.71 39.3804 27.25 41.6204 27.25C43.7604 27.25 45.5604 27.71 47.0204 28.63C48.4804 29.53 49.5804 30.81 50.3204 32.47C51.0804 34.11 51.4604 36.04 51.4604 38.26ZM34.5404 38.26C34.5404 40.06 34.7904 41.61 35.2904 42.91C35.7904 44.21 36.5604 45.21 37.6004 45.91C38.6604 46.61 39.9904 46.96 41.5904 46.96C43.2104 46.96 44.5304 46.61 45.5504 45.91C46.5904 45.21 47.3604 44.21 47.8604 42.91C48.3604 41.61 48.6104 40.06 48.6104 38.26C48.6104 35.56 48.0504 33.45 46.9304 31.93C45.8104 30.39 44.0404 29.62 41.6204 29.62C40.0004 29.62 38.6604 29.97 37.6004 30.67C36.5604 31.35 35.7904 32.34 35.2904 33.64C34.7904 34.92 34.5404 36.46 34.5404 38.26ZM63.4979 32.62C65.4779 32.62 67.0679 33.31 68.2679 34.69C69.4879 36.07 70.0979 38.15 70.0979 40.93C70.0979 42.75 69.8179 44.29 69.2579 45.55C68.7179 46.79 67.9479 47.73 66.9479 48.37C65.9679 48.99 64.8079 49.3 63.4679 49.3C62.6479 49.3 61.9179 49.19 61.2779 48.97C60.6379 48.75 60.0879 48.47 59.6279 48.13C59.1879 47.77 58.8079 47.38 58.4879 46.96H58.3079C58.3479 47.3 58.3879 47.73 58.4279 48.25C58.4679 48.77 58.4879 49.22 58.4879 49.6V56.2H55.8479V32.92H58.0079L58.3679 35.11H58.4879C58.8079 34.65 59.1879 34.23 59.6279 33.85C60.0879 33.47 60.6279 33.17 61.2479 32.95C61.8879 32.73 62.6379 32.62 63.4979 32.62ZM63.0179 34.84C61.9379 34.84 61.0679 35.05 60.4079 35.47C59.7479 35.87 59.2679 36.48 58.9679 37.3C58.6679 38.12 58.5079 39.16 58.4879 40.42V40.93C58.4879 42.25 58.6279 43.37 58.9079 44.29C59.1879 45.21 59.6579 45.91 60.3179 46.39C60.9979 46.87 61.9179 47.11 63.0779 47.11C64.0579 47.11 64.8579 46.84 65.4779 46.3C66.1179 45.76 66.5879 45.03 66.8879 44.11C67.2079 43.17 67.3679 42.1 67.3679 40.9C67.3679 39.06 67.0079 37.59 66.2879 36.49C65.5879 35.39 64.4979 34.84 63.0179 34.84ZM80.5149 32.62C81.8949 32.62 83.0749 32.92 84.0549 33.52C85.0549 34.12 85.8149 34.97 86.3349 36.07C86.8749 37.15 87.1449 38.42 87.1449 39.88V41.47H76.1349C76.1749 43.29 76.6349 44.68 77.5149 45.64C78.4149 46.58 79.6649 47.05 81.2649 47.05C82.2849 47.05 83.1849 46.96 83.9649 46.78C84.7649 46.58 85.5849 46.3 86.4249 45.94V48.25C85.6049 48.61 84.7949 48.87 83.9949 49.03C83.1949 49.21 82.2449 49.3 81.1449 49.3C79.6249 49.3 78.2749 48.99 77.0949 48.37C75.9349 47.75 75.0249 46.83 74.3649 45.61C73.7249 44.37 73.4049 42.86 73.4049 41.08C73.4049 39.32 73.6949 37.81 74.2749 36.55C74.8749 35.29 75.7049 34.32 76.7649 33.64C77.8449 32.96 79.0949 32.62 80.5149 32.62ZM80.4849 34.78C79.2249 34.78 78.2249 35.19 77.4849 36.01C76.7649 36.81 76.3349 37.93 76.1949 39.37H84.3849C84.3849 38.45 84.2449 37.65 83.9649 36.97C83.6849 36.29 83.2549 35.76 82.6749 35.38C82.1149 34.98 81.3849 34.78 80.4849 34.78ZM98.9785 32.62C100.898 32.62 102.348 33.09 103.328 34.03C104.308 34.95 104.798 36.45 104.798 38.53V49H102.188V38.71C102.188 37.41 101.898 36.44 101.318 35.8C100.738 35.16 99.8285 34.84 98.5885 34.84C96.8085 34.84 95.5785 35.34 94.8985 36.34C94.2185 37.34 93.8785 38.78 93.8785 40.66V49H91.2385V32.92H93.3685L93.7585 35.11H93.9085C94.2685 34.55 94.7085 34.09 95.2285 33.73C95.7685 33.35 96.3585 33.07 96.9985 32.89C97.6385 32.71 98.2985 32.62 98.9785 32.62ZM123.966 49H116.226V47.44L118.746 46.87V29.74L116.226 29.14V27.58H123.966V29.14L121.446 29.74V46.87L123.966 47.44V49ZM135.482 32.62C137.402 32.62 138.852 33.09 139.832 34.03C140.812 34.95 141.302 36.45 141.302 38.53V49H138.692V38.71C138.692 37.41 138.402 36.44 137.822 35.8C137.242 35.16 136.332 34.84 135.092 34.84C133.312 34.84 132.082 35.34 131.402 36.34C130.722 37.34 130.382 38.78 130.382 40.66V49H127.742V32.92H129.872L130.262 35.11H130.412C130.772 34.55 131.212 34.09 131.732 33.73C132.272 33.35 132.862 33.07 133.502 32.89C134.142 32.71 134.802 32.62 135.482 32.62ZM149.827 49L143.737 32.92H146.557L149.977 42.4C150.137 42.84 150.307 43.33 150.487 43.87C150.667 44.41 150.827 44.93 150.967 45.43C151.107 45.91 151.207 46.32 151.267 46.66H151.387C151.467 46.32 151.577 45.9 151.717 45.4C151.877 44.9 152.047 44.38 152.227 43.84C152.427 43.3 152.597 42.82 152.737 42.4L156.157 32.92H158.977L152.857 49H149.827ZM167.732 32.62C169.112 32.62 170.292 32.92 171.272 33.52C172.272 34.12 173.032 34.97 173.552 36.07C174.092 37.15 174.362 38.42 174.362 39.88V41.47H163.352C163.392 43.29 163.852 44.68 164.732 45.64C165.632 46.58 166.882 47.05 168.482 47.05C169.502 47.05 170.402 46.96 171.182 46.78C171.982 46.58 172.802 46.3 173.642 45.94V48.25C172.822 48.61 172.012 48.87 171.212 49.03C170.412 49.21 169.462 49.3 168.362 49.3C166.842 49.3 165.492 48.99 164.312 48.37C163.152 47.75 162.242 46.83 161.582 45.61C160.942 44.37 160.622 42.86 160.622 41.08C160.622 39.32 160.912 37.81 161.492 36.55C162.092 35.29 162.922 34.32 163.982 33.64C165.062 32.96 166.312 32.62 167.732 32.62ZM167.702 34.78C166.442 34.78 165.442 35.19 164.702 36.01C163.982 36.81 163.552 37.93 163.412 39.37H171.602C171.602 38.45 171.462 37.65 171.182 36.97C170.902 36.29 170.472 35.76 169.892 35.38C169.332 34.98 168.602 34.78 167.702 34.78ZM186.195 32.62C188.115 32.62 189.565 33.09 190.545 34.03C191.525 34.95 192.015 36.45 192.015 38.53V49H189.405V38.71C189.405 37.41 189.115 36.44 188.535 35.8C187.955 35.16 187.045 34.84 185.805 34.84C184.025 34.84 182.795 35.34 182.115 36.34C181.435 37.34 181.095 38.78 181.095 40.66V49H178.455V32.92H180.585L180.975 35.11H181.125C181.485 34.55 181.925 34.09 182.445 33.73C182.985 33.35 183.575 33.07 184.215 32.89C184.855 32.71 185.515 32.62 186.195 32.62ZM202.37 47.14C202.77 47.14 203.18 47.11 203.6 47.05C204.02 46.97 204.36 46.89 204.62 46.81V48.82C204.34 48.96 203.94 49.07 203.42 49.15C202.9 49.25 202.4 49.3 201.92 49.3C201.08 49.3 200.3 49.16 199.58 48.88C198.88 48.58 198.31 48.07 197.87 47.35C197.43 46.63 197.21 45.62 197.21 44.32V34.96H194.93V33.7L197.24 32.65L198.29 29.23H199.85V32.92H204.5V34.96H199.85V44.26C199.85 45.24 200.08 45.97 200.54 46.45C201.02 46.91 201.63 47.14 202.37 47.14ZM221.82 40.93C221.82 42.27 221.64 43.46 221.28 44.5C220.94 45.52 220.44 46.39 219.78 47.11C219.14 47.83 218.35 48.38 217.41 48.76C216.49 49.12 215.46 49.3 214.32 49.3C213.26 49.3 212.28 49.12 211.38 48.76C210.48 48.38 209.7 47.83 209.04 47.11C208.38 46.39 207.86 45.52 207.48 44.5C207.12 43.46 206.94 42.27 206.94 40.93C206.94 39.15 207.24 37.65 207.84 36.43C208.44 35.19 209.3 34.25 210.42 33.61C211.54 32.95 212.87 32.62 214.41 32.62C215.87 32.62 217.15 32.95 218.25 33.61C219.37 34.25 220.24 35.19 220.86 36.43C221.5 37.65 221.82 39.15 221.82 40.93ZM209.67 40.93C209.67 42.19 209.83 43.29 210.15 44.23C210.49 45.15 211.01 45.86 211.71 46.36C212.41 46.86 213.3 47.11 214.38 47.11C215.46 47.11 216.35 46.86 217.05 46.36C217.75 45.86 218.26 45.15 218.58 44.23C218.92 43.29 219.09 42.19 219.09 40.93C219.09 39.65 218.92 38.56 218.58 37.66C218.24 36.76 217.72 36.07 217.02 35.59C216.34 35.09 215.45 34.84 214.35 34.84C212.71 34.84 211.52 35.38 210.78 36.46C210.04 37.54 209.67 39.03 209.67 40.93ZM233.504 32.62C233.804 32.62 234.124 32.64 234.464 32.68C234.824 32.7 235.134 32.74 235.394 32.8L235.064 35.23C234.804 35.17 234.514 35.12 234.194 35.08C233.894 35.04 233.604 35.02 233.324 35.02C232.704 35.02 232.114 35.15 231.554 35.41C230.994 35.67 230.494 36.04 230.054 36.52C229.614 36.98 229.264 37.54 229.004 38.2C228.764 38.86 228.644 39.6 228.644 40.42V49H226.004V32.92H228.164L228.464 35.86H228.584C228.924 35.26 229.334 34.72 229.814 34.24C230.294 33.74 230.844 33.35 231.464 33.07C232.084 32.77 232.764 32.62 233.504 32.62ZM235.877 32.92H238.697L242.177 42.07C242.377 42.61 242.557 43.13 242.717 43.63C242.897 44.13 243.057 44.62 243.197 45.1C243.337 45.56 243.447 46.01 243.527 46.45H243.647C243.767 45.95 243.957 45.3 244.217 44.5C244.477 43.68 244.747 42.86 245.027 42.04L248.297 32.92H251.147L244.217 51.22C243.837 52.22 243.387 53.09 242.867 53.83C242.367 54.59 241.747 55.17 241.007 55.57C240.287 55.99 239.407 56.2 238.367 56.2C237.887 56.2 237.467 56.17 237.107 56.11C236.747 56.07 236.437 56.02 236.177 55.96V53.86C236.397 53.9 236.657 53.94 236.957 53.98C237.277 54.02 237.607 54.04 237.947 54.04C238.567 54.04 239.097 53.92 239.537 53.68C239.997 53.46 240.387 53.13 240.707 52.69C241.027 52.27 241.297 51.77 241.517 51.19L242.357 49.06L235.877 32.92Z" fill="white"/>
</svg>
