<svg width="280" height="80" viewBox="0 0 280 80" fill="none" xmlns="http://www.w3.org/2000/svg">
<rect width="280" height="80" rx="40" fill="none"/>
<path d="M69.3168 38.26C69.3168 39.92 69.1068 41.43 68.6868 42.79C68.2668 44.13 67.6368 45.29 66.7968 46.27C65.9768 47.25 64.9468 48 63.7068 48.52C62.4868 49.04 61.0668 49.3 59.4468 49.3C57.7668 49.3 56.3068 49.04 55.0668 48.52C53.8268 47.98 52.7968 47.23 51.9768 46.27C51.1568 45.29 50.5468 44.12 50.1468 42.76C49.7468 41.4 49.5468 39.89 49.5468 38.23C49.5468 36.03 49.9068 34.11 50.6268 32.47C51.3468 30.83 52.4368 29.55 53.8968 28.63C55.3768 27.71 57.2368 27.25 59.4768 27.25C61.6168 27.25 63.4168 27.71 64.8768 28.63C66.3368 29.53 67.4368 30.81 68.1768 32.47C68.9368 34.11 69.3168 36.04 69.3168 38.26ZM52.3968 38.26C52.3968 40.06 52.6468 41.61 53.1468 42.91C53.6468 44.21 54.4168 45.21 55.4568 45.91C56.5168 46.61 57.8468 46.96 59.4468 46.96C61.0668 46.96 62.3868 46.61 63.4068 45.91C64.4468 45.21 65.2168 44.21 65.7168 42.91C66.2168 41.61 66.4668 40.06 66.4668 38.26C66.4668 35.56 65.9068 33.45 64.7868 31.93C63.6668 30.39 61.8968 29.62 59.4768 29.62C57.8568 29.62 56.5168 29.97 55.4568 30.67C54.4168 31.35 53.6468 32.34 53.1468 33.64C52.6468 34.92 52.3968 36.46 52.3968 38.26ZM81.3543 32.62C83.3343 32.62 84.9243 33.31 86.1243 34.69C87.3443 36.07 87.9543 38.15 87.9543 40.93C87.9543 42.75 87.6743 44.29 87.1143 45.55C86.5743 46.79 85.8043 47.73 84.8043 48.37C83.8243 48.99 82.6643 49.3 81.3243 49.3C80.5043 49.3 79.7743 49.19 79.1343 48.97C78.4943 48.75 77.9443 48.47 77.4843 48.13C77.0443 47.77 76.6643 47.38 76.3443 46.96H76.1643C76.2043 47.3 76.2443 47.73 76.2843 48.25C76.3243 48.77 76.3443 49.22 76.3443 49.6V56.2H73.7043V32.92H75.8643L76.2243 35.11H76.3443C76.6643 34.65 77.0443 34.23 77.4843 33.85C77.9443 33.47 78.4843 33.17 79.1043 32.95C79.7443 32.73 80.4943 32.62 81.3543 32.62ZM80.8743 34.84C79.7943 34.84 78.9243 35.05 78.2643 35.47C77.6043 35.87 77.1243 36.48 76.8243 37.3C76.5243 38.12 76.3643 39.16 76.3443 40.42V40.93C76.3443 42.25 76.4843 43.37 76.7643 44.29C77.0443 45.21 77.5143 45.91 78.1743 46.39C78.8543 46.87 79.7743 47.11 80.9343 47.11C81.9143 47.11 82.7143 46.84 83.3343 46.3C83.9743 45.76 84.4443 45.03 84.7443 44.11C85.0643 43.17 85.2243 42.1 85.2243 40.9C85.2243 39.06 84.8643 37.59 84.1443 36.49C83.4443 35.39 82.3543 34.84 80.8743 34.84ZM98.3713 32.62C99.7513 32.62 100.931 32.92 101.911 33.52C102.911 34.12 103.671 34.97 104.191 36.07C104.731 37.15 105.001 38.42 105.001 39.88V41.47H93.9913C94.0313 43.29 94.4913 44.68 95.3713 45.64C96.2713 46.58 97.5213 47.05 99.1213 47.05C100.141 47.05 101.041 46.96 101.821 46.78C102.621 46.58 103.441 46.3 104.281 45.94V48.25C103.461 48.61 102.651 48.87 101.851 49.03C101.051 49.21 100.101 49.3 99.0013 49.3C97.4813 49.3 96.1313 48.99 94.9513 48.37C93.7913 47.75 92.8813 46.83 92.2213 45.61C91.5813 44.37 91.2613 42.86 91.2613 41.08C91.2613 39.32 91.5513 37.81 92.1313 36.55C92.7313 35.29 93.5613 34.32 94.6213 33.64C95.7013 32.96 96.9513 32.62 98.3713 32.62ZM98.3413 34.78C97.0813 34.78 96.0813 35.19 95.3413 36.01C94.6213 36.81 94.1913 37.93 94.0513 39.37H102.241C102.241 38.45 102.101 37.65 101.821 36.97C101.541 36.29 101.111 35.76 100.531 35.38C99.9713 34.98 99.2413 34.78 98.3413 34.78ZM116.835 32.62C118.755 32.62 120.205 33.09 121.185 34.03C122.165 34.95 122.655 36.45 122.655 38.53V49H120.045V38.71C120.045 37.41 119.755 36.44 119.175 35.8C118.595 35.16 117.685 34.84 116.445 34.84C114.665 34.84 113.435 35.34 112.755 36.34C112.075 37.34 111.735 38.78 111.735 40.66V49H109.095V32.92H111.225L111.615 35.11H111.765C112.125 34.55 112.565 34.09 113.085 33.73C113.625 33.35 114.215 33.07 114.855 32.89C115.495 32.71 116.155 32.62 116.835 32.62ZM132.763 54.7C132.283 54.7 131.863 54.66 131.503 54.58C131.143 54.52 130.823 54.43 130.543 54.31V52.03C130.863 52.11 131.203 52.18 131.563 52.24C131.923 52.3 132.303 52.33 132.703 52.33C133.203 52.33 133.673 52.23 134.113 52.03C134.573 51.83 134.943 51.48 135.223 50.98C135.503 50.48 135.643 49.78 135.643 48.88V27.58H138.343V48.67C138.343 50.05 138.113 51.18 137.653 52.06C137.193 52.96 136.543 53.62 135.703 54.04C134.863 54.48 133.883 54.7 132.763 54.7ZM157.616 40.93C157.616 42.27 157.436 43.46 157.076 44.5C156.736 45.52 156.236 46.39 155.576 47.11C154.936 47.83 154.146 48.38 153.206 48.76C152.286 49.12 151.256 49.3 150.116 49.3C149.056 49.3 148.076 49.12 147.176 48.76C146.276 48.38 145.496 47.83 144.836 47.11C144.176 46.39 143.656 45.52 143.276 44.5C142.916 43.46 142.736 42.27 142.736 40.93C142.736 39.15 143.036 37.65 143.636 36.43C144.236 35.19 145.096 34.25 146.216 33.61C147.336 32.95 148.666 32.62 150.206 32.62C151.666 32.62 152.946 32.95 154.046 33.61C155.166 34.25 156.036 35.19 156.656 36.43C157.296 37.65 157.616 39.15 157.616 40.93ZM145.466 40.93C145.466 42.19 145.626 43.29 145.946 44.23C146.286 45.15 146.806 45.86 147.506 46.36C148.206 46.86 149.096 47.11 150.176 47.11C151.256 47.11 152.146 46.86 152.846 46.36C153.546 45.86 154.056 45.15 154.376 44.23C154.716 43.29 154.886 42.19 154.886 40.93C154.886 39.65 154.716 38.56 154.376 37.66C154.036 36.76 153.516 36.07 152.816 35.59C152.136 35.09 151.246 34.84 150.146 34.84C148.506 34.84 147.316 35.38 146.576 36.46C145.836 37.54 145.466 39.03 145.466 40.93ZM175.24 32.92V49H173.08L172.69 46.87H172.57C172.23 47.43 171.79 47.89 171.25 48.25C170.71 48.61 170.12 48.87 169.48 49.03C168.84 49.21 168.17 49.3 167.47 49.3C166.19 49.3 165.11 49.1 164.23 48.7C163.37 48.28 162.72 47.64 162.28 46.78C161.84 45.92 161.62 44.81 161.62 43.45V32.92H164.29V43.27C164.29 44.55 164.58 45.51 165.16 46.15C165.74 46.79 166.64 47.11 167.86 47.11C169.06 47.11 170 46.89 170.68 46.45C171.38 45.99 171.87 45.33 172.15 44.47C172.45 43.59 172.6 42.53 172.6 41.29V32.92H175.24ZM187.845 32.62C188.145 32.62 188.465 32.64 188.805 32.68C189.165 32.7 189.475 32.74 189.735 32.8L189.405 35.23C189.145 35.17 188.855 35.12 188.535 35.08C188.235 35.04 187.945 35.02 187.665 35.02C187.045 35.02 186.455 35.15 185.895 35.41C185.335 35.67 184.835 36.04 184.395 36.52C183.955 36.98 183.605 37.54 183.345 38.2C183.105 38.86 182.985 39.6 182.985 40.42V49H180.345V32.92H182.505L182.805 35.86H182.925C183.265 35.26 183.675 34.72 184.155 34.24C184.635 33.74 185.185 33.35 185.805 33.07C186.425 32.77 187.105 32.62 187.845 32.62ZM200.478 32.62C202.398 32.62 203.848 33.09 204.828 34.03C205.808 34.95 206.298 36.45 206.298 38.53V49H203.688V38.71C203.688 37.41 203.398 36.44 202.818 35.8C202.238 35.16 201.328 34.84 200.088 34.84C198.308 34.84 197.078 35.34 196.398 36.34C195.718 37.34 195.378 38.78 195.378 40.66V49H192.738V32.92H194.868L195.258 35.11H195.408C195.768 34.55 196.208 34.09 196.728 33.73C197.268 33.35 197.858 33.07 198.498 32.89C199.138 32.71 199.798 32.62 200.478 32.62ZM217.372 32.65C219.332 32.65 220.782 33.08 221.722 33.94C222.662 34.8 223.132 36.17 223.132 38.05V49H221.212L220.702 46.72H220.582C220.122 47.3 219.642 47.79 219.142 48.19C218.662 48.57 218.102 48.85 217.462 49.03C216.842 49.21 216.082 49.3 215.182 49.3C214.222 49.3 213.352 49.13 212.572 48.79C211.812 48.45 211.212 47.93 210.772 47.23C210.332 46.51 210.112 45.61 210.112 44.53C210.112 42.93 210.742 41.7 212.002 40.84C213.262 39.96 215.202 39.48 217.822 39.4L220.552 39.31V38.35C220.552 37.01 220.262 36.08 219.682 35.56C219.102 35.04 218.282 34.78 217.222 34.78C216.382 34.78 215.582 34.91 214.822 35.17C214.062 35.41 213.352 35.69 212.692 36.01L211.882 34.03C212.582 33.65 213.412 33.33 214.372 33.07C215.332 32.79 216.332 32.65 217.372 32.65ZM218.152 41.23C216.152 41.31 214.762 41.63 213.982 42.19C213.222 42.75 212.842 43.54 212.842 44.56C212.842 45.46 213.112 46.12 213.652 46.54C214.212 46.96 214.922 47.17 215.782 47.17C217.142 47.17 218.272 46.8 219.172 46.06C220.072 45.3 220.522 44.14 220.522 42.58V41.14L218.152 41.23ZM230.739 49H228.099V26.2H230.739V49Z" fill="white"/>
</svg>
